<svg height="400" width="400" xmlns="http://www.w3.org/2000/svg"><g fill="none" fill-rule="evenodd"><path d="M151 87.2a5165 5165 0 0017.1 50.7l21.2 62.5c2.7 8.2 12.7 37.3 22.2 64.7l17.2 49.8h48.7l1.4-4.4a46618.3 46618.3 0 0028.5-83.7l8.3-24.1a579910.7 579910.7 0 006.8 111l.2 1.2H369l-.2-1.8-.4-7-1.2-19.7A387512.5 387512.5 0 01355.5 88l-.2-1.2h-22.6c-12.4-.1-23.5 0-24.6 0l-2 .2-.9 2.6a4207.3 4207.3 0 01-10.8 31.6 12243.7 12243.7 0 01-28.7 84.2L254.2 239c-.6 1.8-1.2 3.2-1.3 3-.2 0-12.5-35-27.4-77.6-14.8-42.6-27.2-77.5-27.3-77.6s-11-.2-23.9-.2h-23.5zm-2.2 90.7l-.1 60.2-.6 2.8a39.3 39.3 0 01-77.6-4.2c-.1-.1-35.4-.7-42.9-.7h-3.4l.2 3.4c2.4 48.4 49 85.5 98.2 78.2 34.3-5.2 63-32 70.5-65.8l.6-2.7-1.2-3.6c-6-17-11.4-33-20.5-60l-22.7-66.8c-.4-1-.4 5.2-.5 59.2" fill="#f9f9f9"/><path d="M0 200v200h400V0H0zM200.6 92.8A7926.8 7926.8 0 01224 159a6960.2 6960.2 0 0121.8 62.5 2223.3 2223.3 0 017.1 20.2c.1 0 .9-1.8 1.7-4.3a8411 8411 0 0116.5-48.2 29262.2 29262.2 0 0033.6-98.5l1.4-4.2h49.7v.8l2.4 42.4a1307563.6 1307563.6 0 0110.8 184v1.3h-23.2c-18.3 0-23.2 0-23.3-.3l-1.2-19.7-5.6-91.6a23252.5 23252.5 0 01-36 105.4l-2 6.1H253l-24.4.1-2.4-6.7a12654.3 12654.3 0 01-20.4-59 5765 5765 0 01-33.4-98.1 38361 38361 0 01-21.6-64.4c0-.3 5-.3 23.8-.3h23.8zm-47.9 35.1a12418.8 12418.8 0 0025.2 74.5l12.4 36.3c3.8 11 3.7 10.4 2.7 14.3a86.4 86.4 0 01-61.9 63 85.9 85.9 0 01-107-80.1l19 .1 23.3.3h4.3l.5 3.1a39 39 0 0076.6 2l.6-2.4.1-61.3c0-41.9.2-61.1.4-60.8l3.8 11" fill="#1a202e"/></g></svg>
