<svg height="630" width="1200" xmlns="http://www.w3.org/2000/svg"><g fill="none" fill-rule="evenodd"><path d="M0 0h1200v630H0z" fill="#fff"/><rect fill="#fff" height="182" rx="19" stroke="#000" stroke-width="8" width="181" x="509" y="224"/><g fill-rule="nonzero"><path d="M641.916 285.71c-2.33-3.133-5.58-6.803-9.145-10.32s-7.285-6.725-10.461-9.024c-5.412-3.916-8.037-4.366-9.541-4.366h-52.036c-4.626 0-8.393 3.717-8.393 8.281v89.438c0 4.564 3.767 8.281 8.393 8.281h77.215c4.626 0 8.392-3.717 8.392-8.281v-64.594c0-1.484-.456-4.074-4.424-9.414zm-13.899-5.63c3.223 3.18 5.748 6.042 7.614 8.42h-16.154v-15.933c2.41 1.842 5.317 4.333 8.533 7.513zm11.61 79.639c0 .9-.766 1.656-1.68 1.656h-77.214c-.906 0-1.678-.755-1.678-1.656V270.28c0-.894.772-1.656 1.678-1.656h52.036v23.188c0 1.828 1.504 3.312 3.357 3.312h23.5z" fill="#00c58e"/><path d="M572.34 269h13v7h-13zm14 5h13v7h-13zm-14 7h13v7h-13zm14 8h13v7h-13zm-14 6h13v7h-13zm14 6h13v7h-13zm-14 7h13v7h-13zm14 7h13v7h-13zm-15 35.9c0 2.802 2.282 5.1 5.063 5.1h16.875c2.78 0 5.062-2.298 5.062-5.1v-17c0-2.802-2.281-5.1-5.062-5.1h-8.438V322h-13.5zm20.25-8.5v6.8h-13.5v-6.8z" fill="#000"/></g><path d="M107.907 368.811h41.228a13.78 13.78 0 011.49-4.473l38.665-68.047-20.114-35.387zm133.44 0h19.188l-50.367-88.613-9.085 16.093 38.593 68.047a13.3 13.3 0 011.671 4.473zm-46.188-62.19l-35.34 62.19h70.663z"/><path d="M149.631 372.894a6.29 6.29 0 01-.342-.695 8.843 8.843 0 01-.612-5.032h-40.87l60.737-105.873 19.94 34.72 5.782-10.134-17.382-30.331c-.486-.874-3.422-5.549-8.484-5.549-2.287 0-5.565.981-8.231 5.62l-61.53 107.158c-.523.928-3.063 5.799-.541 10.116 1.153 1.963 3.602 4.3 9.006 4.3h51.534c-5.368 0-7.854-2.301-9.007-4.3z" fill="#00c58e"/><path d="M270.012 365.305l-51.858-89.936c-.536-.945-3.529-5.729-8.739-5.729-2.346 0-5.708.982-8.443 5.711l-6.706 11.567 5.967 10.33 9.238-16.095 51.304 88.626h-19.51a8.476 8.476 0 01-.406 4.365 5.523 5.523 0 01-.406.89l-.166.328c-2.624 4.402-8.296 4.638-9.404 4.638h30.52c1.127 0 6.78-.236 9.404-4.638 1.164-2 1.995-5.365-.795-10.057z" fill="#000"/><path d="M241.817 373.516l.163-.325c.16-.284.293-.58.4-.887a8.512 8.512 0 00.4-4.342 13.179 13.179 0 00-1.673-4.45l-38.696-67.697-5.912-10.275-5.876 10.275-38.678 67.697a13.642 13.642 0 00-1.492 4.45 8.999 8.999 0 00.564 5.102c.1.242.216.478.346.706 1.164 1.99 3.638 4.36 9.096 4.36h72.043c1.146 0 6.731-.236 9.315-4.614zm-45.318-67.425l35.366 61.871h-70.714z" fill="#2f495e" fill-rule="nonzero"/><g fill-rule="nonzero"><path d="M1065.433 266.25h-8.079v-8.125c0-4.469-3.635-8.125-8.078-8.125H936.182c-4.443 0-8.079 3.656-8.079 8.125v97.5c0 4.469 3.636 8.125 8.079 8.125h8.078v8.125c0 4.469 3.635 8.125 8.078 8.125h113.095c4.443 0 8.078-3.656 8.078-8.125v-97.5c0-4.469-3.635-8.125-8.078-8.125zm-121.173 8.125v81.25h-8.062l-.016-.016V258.14l.016-.016h113.062l.016.016v8.109h-96.938c-4.443 0-8.078 3.656-8.078 8.125zm121.173 97.484l-.017.016H952.354l-.016-.016V274.39l.016-.016h113.062l.017.016z" fill="#000"/><path d="M1049.437 294.778c0 6.644-5.393 12.037-12.037 12.037-6.645 0-12.037-5.393-12.037-12.037 0-6.645 5.392-12.037 12.037-12.037 6.644 0 12.037 5.392 12.037 12.037z" fill="#000"/><path d="M1058.103 363.63h-97.259v-16.37l28.367-49.112 32.42 40.926h8.105l28.367-24.555z" fill="#00c58e"/></g><g stroke-width="7"><g transform="translate(291.25 299)"><path d="M.71 16h216.5" stroke="#1a202c" stroke-dasharray="28 18" stroke-linecap="square"/><circle cx="216.75" cy="16" fill="#fff" r="16" stroke="#000"/></g><path d="M906.5 315H690" stroke="#1a202c" stroke-dasharray="28 18" stroke-linecap="square"/><circle cx="690" cy="315" fill="#fff" r="16" stroke="#000"/></g></g></svg>