<svg height="630" width="1200" xmlns="http://www.w3.org/2000/svg"><g fill="none" fill-rule="evenodd"><path d="M0 0h1200v630H0z" fill="#fff"/><g fill-rule="nonzero"><path d="M1003.203 295.005c5.382 0 8.935 4.303 7.877 9.556l-24.021 84.883C986 394.71 980.724 399 975.342 399H838.191c-5.395 0-10.659-4.303-11.717-9.556l-24.02-84.883c-1.059-5.253 2.481-9.556 7.876-9.556z" fill="#41b883"/><path d="M985.139 252.752v29.252H828.394v-42.253c0-5.383 4.39-9.751 9.797-9.751h42.452l6.53 13.001h88.17c5.407 0 9.796 4.368 9.796 9.75z" fill="#34495e"/></g><path d="M603.965 318.283v33.106h-8.79v-33.106H565v-8.935h30.176V278h8.789v31.348h30.249v8.935z" fill="#34495e" fill-rule="nonzero"/><path d="M308.014 216.151l-26.218 45.656-26.219-45.656h-87.31L281.796 413.85l113.528-197.7z" fill="#41b883"/><path d="M308.014 216.151l-26.218 45.656-26.219-45.656H213.68l68.117 118.616 68.117-118.616z" fill="#34495e"/></g></svg>