<?xml version="1.0" encoding="UTF-8"?><svg version="1.1" viewBox="0 0 16 16" xmlns="http://www.w3.org/2000/svg" xmlns:xlink="http://www.w3.org/1999/xlink"><!--Generated by IJSVG (https://github.com/iconjar/IJSVG)--><path d="M14.5,0h-13c-0.825,0 -1.5,0.675 -1.5,1.5v13c0,0.825 0.675,1.5 1.5,1.5h13c0.825,0 1.5,-0.675 1.5,-1.5v-13c0,-0.825 -0.675,-1.5 -1.5,-1.5Zm-3.5,2.5c0,-0.275 0.225,-0.5 0.5,-0.5h2c0.275,0 0.5,0.225 0.5,0.5v2c0,0.275 -0.225,0.5 -0.5,0.5h-2c-0.275,0 -0.5,-0.225 -0.5,-0.5v-2Zm-3,2.5c1.656,0 3,1.344 3,3c0,1.656 -1.344,3 -3,3c-1.656,0 -3,-1.344 -3,-3c0,-1.656 1.344,-3 3,-3Zm6,8.5v0c0,0.275 -0.225,0.5 -0.5,0.5h-11c-0.275,0 -0.5,-0.225 -0.5,-0.5v0v-6.5h1.1c-0.066,0.322 -0.1,0.656 -0.1,1c0,2.762 2.237,5 5,5c2.763,0 5,-2.238 5,-5c0,-0.344 -0.034,-0.678 -0.1,-1h1.1v6.5Z" fill="#000"></path></svg>