<svg height="16" viewBox="0 0 16 16" width="16" xmlns="http://www.w3.org/2000/svg"><path d="m5 10c-.004 1.657 1.343 2 3 2s2.996-.343 3-2 1.996-2.239 2-5-2.239-5-5-5-4.996 2.239-5 5 2.004 3.343 2 5z"/><path d="m8 13c-1.234 0-2.259-.274-2.463-1.516-.024.168-.037.34-.037.516 0 1.657 1.119 2 2.5 2s2.5-.343 2.5-2c0-.176-.013-.348-.037-.516-.204 1.241-1.229 1.516-2.463 1.516z"/><path d="m8 15c-.987 0-1.807-.274-1.97-1.516-.019.168-.03.34-.03.516 0 1.657.895 2 2 2s2-.343 2-2c0-.176-.01-.348-.03-.516-.163 1.241-.983 1.516-1.97 1.516z"/></svg>