<?xml version="1.0" encoding="UTF-8"?><svg version="1.1" viewBox="0 0 16 16" xmlns="http://www.w3.org/2000/svg" xmlns:xlink="http://www.w3.org/1999/xlink"><!--Generated by IJSVG (https://github.com/iconjar/IJSVG)--><g fill="#000"><path d="M6,6h2.767v1.418h0.04c0.385,-0.691 1.327,-1.418 2.732,-1.418c2.921,0 3.461,1.818 3.461,4.183v4.817h-2.885v-4.27c0,-1.018 -0.021,-2.329 -1.5,-2.329c-1.502,0 -1.732,1.109 -1.732,2.255v4.344h-2.883v-9Z"></path><path d="M1,6h3v9h-3v-9Z"></path><path d="M4,3.5c0,0.828 -0.672,1.5 -1.5,1.5c-0.828,0 -1.5,-0.672 -1.5,-1.5c0,-0.828 0.672,-1.5 1.5,-1.5c0.828,0 1.5,0.672 1.5,1.5Z"></path></g></svg>