<svg height="16" viewBox="0 0 16 16" width="16" xmlns="http://www.w3.org/2000/svg"><path d="m13.739 3.061-5.5-3c-.075-.041-.157-.061-.239-.061s-.165.02-.239.061l-5.5 3c-.161.088-.261.256-.261.439v4c0 2.2.567 3.978 1.735 5.437.912 1.14 2.159 2.068 4.042 3.01.07.035.147.053.224.053s.153-.018.224-.053c1.883-.942 3.13-1.87 4.042-3.01 1.167-1.459 1.735-3.238 1.735-5.437v-4c0-.183-.1-.351-.261-.439zm-1.239 4.439c0 .953-.117 1.784-.359 2.541-.232.728-.575 1.369-1.047 1.96-.699.874-1.664 1.617-3.094 2.375v-12.736l4.5 2.455v3.406z"/></svg>