<svg viewBox="0 0 16 16" xmlns="http://www.w3.org/2000/svg"><g><path d="m8 13c.552 0 1 .448 1 1v1c0 .552-.448 1-1 1s-1-.448-1-1v-1c0-.552.448-1 1-1zm0-10c-.552 0-1-.448-1-1v-1c0-.552.448-1 1-1s1 .448 1 1v1c0 .552-.448 1-1 1zm7 4c.552 0 1 .448 1 1s-.448 1-1 1h-1c-.552 0-1-.448-1-1s.448-1 1-1zm-12 1c0 .552-.448 1-1 1h-1c-.552 0-1-.448-1-1s.448-1 1-1h1c.552 0 1 .448 1 1zm9.95 3.536.707.707c.39.39.39 1.024 0 1.414s-1.024.39-1.414 0l-.707-.707c-.39-.39-.39-1.024 0-1.414s1.024-.39 1.414 0zm-9.9-7.072-.707-.707c-.391-.391-.391-1.024 0-1.414s1.024-.391 1.414 0l.707.707c.391.391.391 1.024 0 1.414s-1.024.391-1.414 0zm9.9 0c-.39.391-1.024.391-1.414 0s-.39-1.024 0-1.414l.707-.707c.39-.391 1.024-.391 1.414 0s.39 1.024 0 1.414zm-9.9 7.072c.39-.39 1.024-.39 1.414 0s.391 1.024 0 1.414l-.707.707c-.391.39-1.024.39-1.414 0s-.391-1.024 0-1.414z"/><path d="m8 4c-2.209 0-4 1.791-4 4s1.791 4 4 4 4-1.791 4-4-1.791-4-4-4zm0 6.5c-1.381 0-2.5-1.119-2.5-2.5s1.119-2.5 2.5-2.5 2.5 1.119 2.5 2.5-1.119 2.5-2.5 2.5z"/></g></svg>