<?xml version="1.0" encoding="UTF-8"?><svg version="1.1" viewBox="0 0 16 16" xmlns="http://www.w3.org/2000/svg" xmlns:xlink="http://www.w3.org/1999/xlink"><!--Generated by IJSVG (https://github.com/iconjar/IJSVG)--><path d="M16,3.538c-0.588,0.263 -1.222,0.438 -1.884,0.516c0.678,-0.406 1.197,-1.05 1.444,-1.816c-0.634,0.375 -1.338,0.65 -2.084,0.797c-0.6,-0.638 -1.453,-1.034 -2.397,-1.034c-1.813,0 -3.281,1.469 -3.281,3.281c0,0.256 0.028,0.506 0.084,0.747c-2.728,-0.138 -5.147,-1.444 -6.766,-3.431c-0.281,0.484 -0.444,1.05 -0.444,1.65c0,1.138 0.578,2.144 1.459,2.731c-0.538,-0.016 -1.044,-0.166 -1.488,-0.409c0,0.013 0,0.028 0,0.041c0,1.591 1.131,2.919 2.634,3.219c-0.275,0.075 -0.566,0.116 -0.866,0.116c-0.212,0 -0.416,-0.022 -0.619,-0.059c0.419,1.303 1.631,2.253 3.066,2.281c-1.125,0.881 -2.538,1.406 -4.078,1.406c-0.266,0 -0.525,-0.016 -0.784,-0.047c1.456,0.934 3.181,1.475 5.034,1.475c6.037,0 9.341,-5.003 9.341,-9.341c0,-0.144 -0.003,-0.284 -0.009,-0.425c0.641,-0.459 1.197,-1.038 1.637,-1.697Z" fill="#000"></path></svg>